<svg width="463" height="268" viewBox="0 0 463 268" fill="none" xmlns="http://www.w3.org/2000/svg">
<g filter="url(#filter0_d_18_70)">
<rect width="463" height="268" rx="24" fill="#16194F"/>
</g>
<mask id="mask0_18_70" style="mask-type:alpha" maskUnits="userSpaceOnUse" x="0" y="0" width="463" height="268">
<rect width="463" height="268" rx="24" fill="#16194F"/>
</mask>
<g mask="url(#mask0_18_70)">
<path d="M358.837 -44.8654C378.761 -67.6842 414.239 -67.6842 434.163 -44.8654L449.718 -27.0512C459.05 -16.3628 472.485 -10.143 486.673 -9.9421L509.609 -9.61732C541.369 -9.16758 564.665 20.3966 557.675 51.3812L554.406 65.872C551.012 80.9147 554.749 96.6817 564.534 108.601L573.676 119.737C594.343 144.912 585.805 182.811 556.34 196.693L540.026 204.379C526.589 210.71 516.662 222.687 512.935 237.066L508.171 255.446C500.457 285.21 467.96 301.024 439.778 288.73L416.493 278.572C403.744 273.01 389.256 273.01 376.507 278.572L353.222 288.73C325.04 301.024 292.543 285.21 284.829 255.446L280.065 237.066C276.338 222.687 266.411 210.71 252.974 204.379L236.66 196.693C207.195 182.811 198.657 144.912 219.324 119.737L228.466 108.601C238.251 96.6817 241.988 80.9147 238.594 65.872L235.325 51.3812C228.335 20.3965 251.631 -9.16758 283.391 -9.61732L306.327 -9.9421C320.515 -10.143 333.95 -16.3628 343.282 -27.0512L358.837 -44.8654Z" fill="#9A94FF"/>
<path d="M93.8568 -137.996C113.827 -161.558 150.173 -161.558 170.143 -137.996L178.659 -127.948C187.994 -116.933 201.636 -110.492 216.073 -110.281L228.722 -110.097C260.344 -109.636 283.6 -80.3002 276.835 -49.4065L274.945 -40.7748C271.725 -26.0685 275.302 -10.6938 284.684 1.08018L290.002 7.75365C309.965 32.8065 301.549 69.9066 272.731 83.8943L263.52 88.3649C250.227 94.8168 240.469 106.818 236.864 121.147L234.203 131.723C226.612 161.897 193.598 177.884 165.218 165.129L152.497 159.412C139.46 153.553 124.54 153.553 111.503 159.412L98.7822 165.129C70.4017 177.884 37.3883 161.897 29.7967 131.722L27.136 121.147C23.5309 106.818 13.7726 94.8169 0.479851 88.3649L-8.73074 83.8943C-37.5493 69.9066 -45.9646 32.8065 -26.0016 7.75366L-20.684 1.0802C-11.302 -10.6938 -7.72461 -26.0685 -10.9451 -40.7748L-12.8353 -49.4065C-19.6005 -80.3002 3.65561 -109.636 35.278 -110.097L47.9274 -110.281C62.3645 -110.492 76.0057 -116.933 85.3412 -127.948L93.8568 -137.996Z" fill="#CAC7FF"/>
<path d="M126.857 95.0044C146.827 71.4417 183.173 71.4417 203.143 95.0044L211.659 105.052C220.994 116.067 234.636 122.508 249.073 122.719L261.722 122.903C293.344 123.364 316.6 152.7 309.835 183.594L307.945 192.225C304.725 206.932 308.302 222.306 317.684 234.08L323.002 240.754C342.965 265.806 334.549 302.907 305.731 316.894L296.52 321.365C283.227 327.817 273.469 339.818 269.864 354.147L267.203 364.723C259.612 394.897 226.598 410.884 198.218 398.129L185.497 392.412C172.46 386.553 157.54 386.553 144.503 392.412L131.782 398.129C103.402 410.884 70.3883 394.897 62.7967 364.722L60.136 354.147C56.5309 339.818 46.7726 327.817 33.4799 321.365L24.2693 316.894C-4.54927 302.907 -12.9646 265.806 6.99835 240.754L12.316 234.08C21.698 222.306 25.2754 206.932 22.0549 192.225L20.1647 183.594C13.3995 152.7 36.6556 123.364 68.278 122.903L80.9274 122.719C95.3645 122.508 109.006 116.067 118.341 105.052L126.857 95.0044Z" fill="#16194F"/>
<mask id="mask1_18_70" style="mask-type:alpha" maskUnits="userSpaceOnUse" x="-37" y="-156" width="338" height="326">
<path d="M93.8568 -137.996C113.827 -161.558 150.173 -161.558 170.143 -137.996L178.659 -127.948C187.994 -116.933 201.636 -110.492 216.073 -110.281L228.722 -110.097C260.344 -109.636 283.6 -80.3002 276.835 -49.4065L274.945 -40.7748C271.725 -26.0685 275.302 -10.6938 284.684 1.08018L290.002 7.75365C309.965 32.8065 301.549 69.9066 272.731 83.8943L263.52 88.3649C250.227 94.8168 240.469 106.818 236.864 121.147L234.203 131.723C226.612 161.897 193.598 177.884 165.218 165.129L152.497 159.412C139.46 153.553 124.54 153.553 111.503 159.412L98.7822 165.129C70.4017 177.884 37.3883 161.897 29.7967 131.722L27.136 121.147C23.5309 106.818 13.7726 94.8169 0.479851 88.3649L-8.73074 83.8943C-37.5493 69.9066 -45.9646 32.8065 -26.0016 7.75366L-20.684 1.0802C-11.302 -10.6938 -7.72461 -26.0685 -10.9451 -40.7748L-12.8353 -49.4065C-19.6005 -80.3002 3.65561 -109.636 35.278 -110.097L47.9274 -110.281C62.3645 -110.492 76.0057 -116.933 85.3412 -127.948L93.8568 -137.996Z" fill="#CAC7FF"/>
</mask>
<g mask="url(#mask1_18_70)">
<path d="M126.857 95.0044C146.827 71.4417 183.173 71.4417 203.143 95.0044L211.659 105.052C220.994 116.067 234.636 122.508 249.073 122.719L261.722 122.903C293.344 123.364 316.6 152.7 309.835 183.594L307.945 192.225C304.725 206.932 308.302 222.306 317.684 234.08L323.002 240.754C342.965 265.806 334.549 302.907 305.731 316.894L296.52 321.365C283.227 327.817 273.469 339.818 269.864 354.147L267.203 364.723C259.612 394.897 226.598 410.884 198.218 398.129L185.497 392.412C172.46 386.553 157.54 386.553 144.503 392.412L131.782 398.129C103.402 410.884 70.3883 394.897 62.7967 364.722L60.136 354.147C56.5309 339.818 46.7726 327.817 33.4799 321.365L24.2693 316.894C-4.54927 302.907 -12.9646 265.806 6.99835 240.754L12.316 234.08C21.698 222.306 25.2754 206.932 22.0549 192.225L20.1647 183.594C13.3995 152.7 36.6556 123.364 68.278 122.903L80.9274 122.719C95.3645 122.508 109.006 116.067 118.341 105.052L126.857 95.0044Z" fill="#F44E77"/>
</g>
</g>
<path d="M41.3711 60.5234C41.3711 59.8594 41.1367 59.3516 40.668 59C40.1992 58.6406 39.3555 58.2656 38.1367 57.875C36.918 57.4766 35.9531 57.0859 35.2422 56.7031C33.3047 55.6562 32.3359 54.2461 32.3359 52.4727C32.3359 51.5508 32.5938 50.7305 33.1094 50.0117C33.6328 49.2852 34.3789 48.7188 35.3477 48.3125C36.3242 47.9062 37.418 47.7031 38.6289 47.7031C39.8477 47.7031 40.9336 47.9258 41.8867 48.3711C42.8398 48.8086 43.5781 49.4297 44.1016 50.2344C44.6328 51.0391 44.8984 51.9531 44.8984 52.9766H41.3828C41.3828 52.1953 41.1367 51.5898 40.6445 51.1602C40.1523 50.7227 39.4609 50.5039 38.5703 50.5039C37.7109 50.5039 37.043 50.6875 36.5664 51.0547C36.0898 51.4141 35.8516 51.8906 35.8516 52.4844C35.8516 53.0391 36.1289 53.5039 36.6836 53.8789C37.2461 54.2539 38.0703 54.6055 39.1562 54.9336C41.1562 55.5352 42.6133 56.2812 43.5273 57.1719C44.4414 58.0625 44.8984 59.1719 44.8984 60.5C44.8984 61.9766 44.3398 63.1367 43.2227 63.9805C42.1055 64.8164 40.6016 65.2344 38.7109 65.2344C37.3984 65.2344 36.2031 64.9961 35.125 64.5195C34.0469 64.0352 33.2227 63.375 32.6523 62.5391C32.0898 61.7031 31.8086 60.7344 31.8086 59.6328H35.3359C35.3359 61.5156 36.4609 62.457 38.7109 62.457C39.5469 62.457 40.1992 62.2891 40.668 61.9531C41.1367 61.6094 41.3711 61.1328 41.3711 60.5234ZM54.6602 63.7109C53.8242 64.7266 52.668 65.2344 51.1914 65.2344C49.832 65.2344 48.793 64.8438 48.0742 64.0625C47.3633 63.2812 47 62.1367 46.9844 60.6289V52.3203H50.3711V60.5117C50.3711 61.832 50.9727 62.4922 52.1758 62.4922C53.3242 62.4922 54.1133 62.0938 54.543 61.2969V52.3203H57.9414V65H54.7539L54.6602 63.7109ZM65.1016 59.9141L63.8828 61.1328V65H60.4961V47H63.8828V56.9727L64.5391 56.1289L67.7852 52.3203H71.8516L67.2695 57.6055L72.25 65H68.3594L65.1016 59.9141ZM76.6211 53.7031C77.5195 52.625 78.6484 52.0859 80.0078 52.0859C82.7578 52.0859 84.1523 53.6836 84.1914 56.8789V65H80.8047V56.9727C80.8047 56.2461 80.6484 55.7109 80.3359 55.3672C80.0234 55.0156 79.5039 54.8398 78.7773 54.8398C77.7852 54.8398 77.0664 55.2227 76.6211 55.9883V65H73.2344V47H76.6211V53.7031ZM98.1719 58.7773C98.1719 60.8086 97.7383 62.3945 96.8711 63.5352C96.0039 64.668 94.793 65.2344 93.2383 65.2344C91.8633 65.2344 90.7656 64.707 89.9453 63.6523L89.793 65H86.7461V47H90.1328V53.457C90.9141 52.543 91.9414 52.0859 93.2148 52.0859C94.7617 52.0859 95.9727 52.6562 96.8477 53.7969C97.7305 54.9297 98.1719 56.5273 98.1719 58.5898V58.7773ZM94.7852 58.5312C94.7852 57.25 94.582 56.3164 94.1758 55.7305C93.7695 55.1367 93.1641 54.8398 92.3594 54.8398C91.2812 54.8398 90.5391 55.2812 90.1328 56.1641V61.168C90.5469 62.0586 91.2969 62.5039 92.3828 62.5039C93.4766 62.5039 94.1953 61.9648 94.5391 60.8867C94.7031 60.3711 94.7852 59.5859 94.7852 58.5312ZM103.844 65H100.445V52.3203H103.844V65ZM100.246 49.0391C100.246 48.5312 100.414 48.1133 100.75 47.7852C101.094 47.457 101.559 47.293 102.145 47.293C102.723 47.293 103.184 47.457 103.527 47.7852C103.871 48.1133 104.043 48.5312 104.043 49.0391C104.043 49.5547 103.867 49.9766 103.516 50.3047C103.172 50.6328 102.715 50.7969 102.145 50.7969C101.574 50.7969 101.113 50.6328 100.762 50.3047C100.418 49.9766 100.246 49.5547 100.246 49.0391ZM113.77 55.4961C113.309 55.4336 112.902 55.4023 112.551 55.4023C111.27 55.4023 110.43 55.8359 110.031 56.7031V65H106.645V52.3203H109.844L109.938 53.832C110.617 52.668 111.559 52.0859 112.762 52.0859C113.137 52.0859 113.488 52.1367 113.816 52.2383L113.77 55.4961ZM126.203 47.9375L130.586 60.3125L134.945 47.9375H139.562V65H136.035V60.3359L136.387 52.2852L131.781 65H129.367L124.773 52.2969L125.125 60.3359V65H121.609V47.9375H126.203ZM149.758 65C149.602 64.6953 149.488 64.3164 149.418 63.8633C148.598 64.7773 147.531 65.2344 146.219 65.2344C144.977 65.2344 143.945 64.875 143.125 64.1562C142.312 63.4375 141.906 62.5312 141.906 61.4375C141.906 60.0938 142.402 59.0625 143.395 58.3438C144.395 57.625 145.836 57.2617 147.719 57.2539H149.277V56.5273C149.277 55.9414 149.125 55.4727 148.82 55.1211C148.523 54.7695 148.051 54.5938 147.402 54.5938C146.832 54.5938 146.383 54.7305 146.055 55.0039C145.734 55.2773 145.574 55.6523 145.574 56.1289H142.188C142.188 55.3945 142.414 54.7148 142.867 54.0898C143.32 53.4648 143.961 52.9766 144.789 52.625C145.617 52.2656 146.547 52.0859 147.578 52.0859C149.141 52.0859 150.379 52.4805 151.293 53.2695C152.215 54.0508 152.676 55.1523 152.676 56.5742V62.0703C152.684 63.2734 152.852 64.1836 153.18 64.8008V65H149.758ZM146.957 62.6445C147.457 62.6445 147.918 62.5352 148.34 62.3164C148.762 62.0898 149.074 61.7891 149.277 61.4141V59.2344H148.012C146.316 59.2344 145.414 59.8203 145.305 60.9922L145.293 61.1914C145.293 61.6133 145.441 61.9609 145.738 62.2344C146.035 62.5078 146.441 62.6445 146.957 62.6445ZM158.582 53.7031C159.48 52.625 160.609 52.0859 161.969 52.0859C164.719 52.0859 166.113 53.6836 166.152 56.8789V65H162.766V56.9727C162.766 56.2461 162.609 55.7109 162.297 55.3672C161.984 55.0156 161.465 54.8398 160.738 54.8398C159.746 54.8398 159.027 55.2227 158.582 55.9883V65H155.195V47H158.582V53.7031ZM174.543 65.2344C172.684 65.2344 171.168 64.6641 169.996 63.5234C168.832 62.3828 168.25 60.8633 168.25 58.9648V58.6367C168.25 57.3633 168.496 56.2266 168.988 55.2266C169.48 54.2188 170.176 53.4453 171.074 52.9062C171.98 52.3594 173.012 52.0859 174.168 52.0859C175.902 52.0859 177.266 52.6328 178.258 53.7266C179.258 54.8203 179.758 56.3711 179.758 58.3789V59.7617H171.684C171.793 60.5898 172.121 61.2539 172.668 61.7539C173.223 62.2539 173.922 62.5039 174.766 62.5039C176.07 62.5039 177.09 62.0312 177.824 61.0859L179.488 62.9492C178.98 63.668 178.293 64.2305 177.426 64.6367C176.559 65.0352 175.598 65.2344 174.543 65.2344ZM174.156 54.8281C173.484 54.8281 172.938 55.0547 172.516 55.5078C172.102 55.9609 171.836 56.6094 171.719 57.4531H176.43V57.1836C176.414 56.4336 176.211 55.8555 175.82 55.4492C175.43 55.0352 174.875 54.8281 174.156 54.8281ZM186.262 60.207L188.605 52.3203H192.238L187.141 66.9688L186.859 67.6367C186.102 69.293 184.852 70.1211 183.109 70.1211C182.617 70.1211 182.117 70.0469 181.609 69.8984V67.332L182.125 67.3438C182.766 67.3438 183.242 67.2461 183.555 67.0508C183.875 66.8555 184.125 66.5312 184.305 66.0781L184.703 65.0352L180.262 52.3203H183.906L186.262 60.207Z" fill="white"/>
<path d="M44.2812 216.473C44.2812 217.301 44.0742 218.035 43.6602 218.676C43.2461 219.316 42.6758 219.828 41.9492 220.211C42.7773 220.609 43.4336 221.16 43.918 221.863C44.4023 222.559 44.6445 223.379 44.6445 224.324C44.6445 225.84 44.1289 227.039 43.0977 227.922C42.0664 228.797 40.6641 229.234 38.8906 229.234C37.1172 229.234 35.7109 228.793 34.6719 227.91C33.6328 227.027 33.1133 225.832 33.1133 224.324C33.1133 223.379 33.3555 222.555 33.8398 221.852C34.3242 221.148 34.9766 220.602 35.7969 220.211C35.0703 219.828 34.5 219.316 34.0859 218.676C33.6797 218.035 33.4766 217.301 33.4766 216.473C33.4766 215.02 33.9609 213.863 34.9297 213.004C35.8984 212.137 37.2148 211.703 38.8789 211.703C40.5352 211.703 41.8477 212.133 42.8164 212.992C43.793 213.844 44.2812 215.004 44.2812 216.473ZM41.2461 224.078C41.2461 223.336 41.0312 222.742 40.6016 222.297C40.1719 221.852 39.5938 221.629 38.8672 221.629C38.1484 221.629 37.5742 221.852 37.1445 222.297C36.7148 222.734 36.5 223.328 36.5 224.078C36.5 224.805 36.7109 225.391 37.1328 225.836C37.5547 226.281 38.1406 226.504 38.8906 226.504C39.625 226.504 40.1992 226.289 40.6133 225.859C41.0352 225.43 41.2461 224.836 41.2461 224.078ZM40.8945 216.637C40.8945 215.973 40.7188 215.441 40.3672 215.043C40.0156 214.637 39.5195 214.434 38.8789 214.434C38.2461 214.434 37.7539 214.629 37.4023 215.02C37.0508 215.41 36.875 215.949 36.875 216.637C36.875 217.316 37.0508 217.863 37.4023 218.277C37.7539 218.691 38.25 218.898 38.8906 218.898C39.5312 218.898 40.0234 218.691 40.3672 218.277C40.7188 217.863 40.8945 217.316 40.8945 216.637ZM55.168 229H51.7812V215.945L47.7383 217.199V214.445L54.8047 211.914H55.168V229ZM72.418 229H60.7227V226.68L66.2422 220.797C67 219.969 67.5586 219.246 67.918 218.629C68.2852 218.012 68.4688 217.426 68.4688 216.871C68.4688 216.113 68.2773 215.52 67.8945 215.09C67.5117 214.652 66.9648 214.434 66.2539 214.434C65.4883 214.434 64.8828 214.699 64.4375 215.23C64 215.754 63.7812 216.445 63.7812 217.305H60.3828C60.3828 216.266 60.6289 215.316 61.1211 214.457C61.6211 213.598 62.3242 212.926 63.2305 212.441C64.1367 211.949 65.1641 211.703 66.3125 211.703C68.0703 211.703 69.4336 212.125 70.4023 212.969C71.3789 213.812 71.8672 215.004 71.8672 216.543C71.8672 217.387 71.6484 218.246 71.2109 219.121C70.7734 219.996 70.0234 221.016 68.9609 222.18L65.082 226.27H72.418V229ZM84.5234 222.578H86.457V225.309H84.5234V229H81.1367V225.309H74.1406L73.9883 223.176L81.1016 211.938H84.5234V222.578ZM77.3633 222.578H81.1367V216.555L80.9141 216.941L77.3633 222.578ZM97.0977 217.727L93.418 216.684L94.1094 214.562L97.7539 216.027L97.5195 211.938H99.8164L99.582 216.109L103.133 214.668L103.824 216.812L100.074 217.855L102.535 220.973L100.672 222.297L98.5391 218.875L96.4297 222.18L94.5664 220.914L97.0977 217.727ZM107.973 217.727L104.293 216.684L104.984 214.562L108.629 216.027L108.395 211.938H110.691L110.457 216.109L114.008 214.668L114.699 216.812L110.949 217.855L113.41 220.973L111.547 222.297L109.414 218.875L107.305 222.18L105.441 220.914L107.973 217.727ZM118.848 217.727L115.168 216.684L115.859 214.562L119.504 216.027L119.27 211.938H121.566L121.332 216.109L124.883 214.668L125.574 216.812L121.824 217.855L124.285 220.973L122.422 222.297L120.289 218.875L118.18 222.18L116.316 220.914L118.848 217.727ZM129.723 217.727L126.043 216.684L126.734 214.562L130.379 216.027L130.145 211.938H132.441L132.207 216.109L135.758 214.668L136.449 216.812L132.699 217.855L135.16 220.973L133.297 222.297L131.164 218.875L129.055 222.18L127.191 220.914L129.723 217.727ZM146.574 217.727L142.895 216.684L143.586 214.562L147.23 216.027L146.996 211.938H149.293L149.059 216.109L152.609 214.668L153.301 216.812L149.551 217.855L152.012 220.973L150.148 222.297L148.016 218.875L145.906 222.18L144.043 220.914L146.574 217.727ZM157.449 217.727L153.77 216.684L154.461 214.562L158.105 216.027L157.871 211.938H160.168L159.934 216.109L163.484 214.668L164.176 216.812L160.426 217.855L162.887 220.973L161.023 222.297L158.891 218.875L156.781 222.18L154.918 220.914L157.449 217.727ZM168.324 217.727L164.645 216.684L165.336 214.562L168.98 216.027L168.746 211.938H171.043L170.809 216.109L174.359 214.668L175.051 216.812L171.301 217.855L173.762 220.973L171.898 222.297L169.766 218.875L167.656 222.18L165.793 220.914L168.324 217.727ZM179.199 217.727L175.52 216.684L176.211 214.562L179.855 216.027L179.621 211.938H181.918L181.684 216.109L185.234 214.668L185.926 216.812L182.176 217.855L184.637 220.973L182.773 222.297L180.641 218.875L178.531 222.18L176.668 220.914L179.199 217.727ZM204.91 229H193.215V226.68L198.734 220.797C199.492 219.969 200.051 219.246 200.41 218.629C200.777 218.012 200.961 217.426 200.961 216.871C200.961 216.113 200.77 215.52 200.387 215.09C200.004 214.652 199.457 214.434 198.746 214.434C197.98 214.434 197.375 214.699 196.93 215.23C196.492 215.754 196.273 216.445 196.273 217.305H192.875C192.875 216.266 193.121 215.316 193.613 214.457C194.113 213.598 194.816 212.926 195.723 212.441C196.629 211.949 197.656 211.703 198.805 211.703C200.562 211.703 201.926 212.125 202.895 212.969C203.871 213.812 204.359 215.004 204.359 216.543C204.359 217.387 204.141 218.246 203.703 219.121C203.266 219.996 202.516 221.016 201.453 222.18L197.574 226.27H204.91V229ZM218.48 221.945C218.48 224.305 217.992 226.109 217.016 227.359C216.039 228.609 214.609 229.234 212.727 229.234C210.867 229.234 209.445 228.621 208.461 227.395C207.477 226.168 206.973 224.41 206.949 222.121V218.98C206.949 216.598 207.441 214.789 208.426 213.555C209.418 212.32 210.844 211.703 212.703 211.703C214.562 211.703 215.984 212.316 216.969 213.543C217.953 214.762 218.457 216.516 218.48 218.805V221.945ZM215.094 218.5C215.094 217.086 214.898 216.059 214.508 215.418C214.125 214.77 213.523 214.445 212.703 214.445C211.906 214.445 211.316 214.754 210.934 215.371C210.559 215.98 210.359 216.938 210.336 218.242V222.391C210.336 223.781 210.523 224.816 210.898 225.496C211.281 226.168 211.891 226.504 212.727 226.504C213.555 226.504 214.152 226.18 214.52 225.531C214.887 224.883 215.078 223.891 215.094 222.555V218.5ZM232.473 229H220.777V226.68L226.297 220.797C227.055 219.969 227.613 219.246 227.973 218.629C228.34 218.012 228.523 217.426 228.523 216.871C228.523 216.113 228.332 215.52 227.949 215.09C227.566 214.652 227.02 214.434 226.309 214.434C225.543 214.434 224.938 214.699 224.492 215.23C224.055 215.754 223.836 216.445 223.836 217.305H220.438C220.438 216.266 220.684 215.316 221.176 214.457C221.676 213.598 222.379 212.926 223.285 212.441C224.191 211.949 225.219 211.703 226.367 211.703C228.125 211.703 229.488 212.125 230.457 212.969C231.434 213.812 231.922 215.004 231.922 216.543C231.922 217.387 231.703 218.246 231.266 219.121C230.828 219.996 230.078 221.016 229.016 222.18L225.137 226.27H232.473V229ZM242.785 229H239.398V215.945L235.355 217.199V214.445L242.422 211.914H242.785V229Z" fill="white"/>
<circle cx="375.5" cy="220.5" r="17.5" fill="white" fill-opacity="0.75"/>
<circle cx="351.5" cy="220.5" r="17.5" fill="white"/>
<defs>
<filter id="filter0_d_18_70" x="-100" y="-50" width="663" height="468" filterUnits="userSpaceOnUse" color-interpolation-filters="sRGB">
<feFlood flood-opacity="0" result="BackgroundImageFix"/>
<feColorMatrix in="SourceAlpha" type="matrix" values="0 0 0 0 0 0 0 0 0 0 0 0 0 0 0 0 0 0 127 0" result="hardAlpha"/>
<feOffset dy="50"/>
<feGaussianBlur stdDeviation="50"/>
<feComposite in2="hardAlpha" operator="out"/>
<feColorMatrix type="matrix" values="0 0 0 0 0.0862745 0 0 0 0 0.0980392 0 0 0 0 0.309804 0 0 0 0.2 0"/>
<feBlend mode="normal" in2="BackgroundImageFix" result="effect1_dropShadow_18_70"/>
<feBlend mode="normal" in="SourceGraphic" in2="effect1_dropShadow_18_70" result="shape"/>
</filter>
</defs>
</svg>
